<?xml version="1.0" encoding="UTF-8" standalone="no"?>
<!DOCTYPE svg PUBLIC "-//W3C//DTD SVG 1.1//EN" "http://www.w3.org/Graphics/SVG/1.1/DTD/svg11.dtd">
<svg width="100%" height="100%" viewBox="0 0 1080 300" version="1.1" xmlns="http://www.w3.org/2000/svg" xmlns:xlink="http://www.w3.org/1999/xlink" xml:space="preserve" xmlns:serif="http://www.serif.com/" style="fill-rule:evenodd;clip-rule:evenodd;stroke-linejoin:round;stroke-miterlimit:2;">
    <g transform="matrix(6.73322,0,0,6.73322,-1982.01,-2871.08)">
        <g transform="matrix(24,0,0,24,296.062,454.517)">
            <path d="M0.549,-0.016C0.553,-0.006 0.563,0 0.572,0C0.575,0.001 0.577,0 0.581,0C0.593,-0.005 0.599,-0.02 0.594,-0.032L0.351,-0.682C0.348,-0.691 0.338,-0.697 0.327,-0.697C0.317,-0.697 0.307,-0.691 0.303,-0.682L0.06,-0.032C0.055,-0.02 0.062,-0.005 0.074,0C0.077,-0.001 0.081,0 0.083,0C0.093,0 0.102,-0.006 0.106,-0.016L0.168,-0.181L0.487,-0.181L0.549,-0.016ZM0.328,-0.606L0.469,-0.23L0.186,-0.23L0.328,-0.606Z" style="fill:white;fill-rule:nonzero;"/>
        </g>
        <g transform="matrix(24,0,0,24,311.566,454.517)">
            <path d="M0.471,-0.043C0.482,-0.021 0.503,-0.011 0.516,-0.011L0.518,-0.011C0.524,-0.011 0.529,-0.012 0.53,-0.012C0.543,-0.017 0.549,-0.031 0.546,-0.044C0.542,-0.055 0.53,-0.061 0.519,-0.06C0.518,-0.061 0.513,-0.065 0.509,-0.077C0.504,-0.092 0.5,-0.117 0.5,-0.158C0.5,-0.237 0.452,-0.288 0.406,-0.314C0.402,-0.316 0.399,-0.317 0.396,-0.319C0.464,-0.351 0.511,-0.42 0.511,-0.5C0.511,-0.611 0.422,-0.7 0.312,-0.7L0.112,-0.7C0.1,-0.699 0.09,-0.688 0.09,-0.676L0.09,-0.024C0.09,-0.011 0.101,0 0.114,0C0.128,0 0.139,-0.011 0.139,-0.024L0.139,-0.301L0.309,-0.301C0.31,-0.301 0.311,-0.3 0.314,-0.299C0.327,-0.297 0.364,-0.286 0.395,-0.264C0.426,-0.241 0.452,-0.209 0.452,-0.158C0.452,-0.099 0.459,-0.066 0.471,-0.043ZM0.463,-0.5C0.463,-0.418 0.397,-0.351 0.316,-0.349L0.139,-0.349L0.139,-0.651L0.312,-0.651C0.395,-0.651 0.463,-0.584 0.463,-0.5Z" style="fill:white;fill-rule:nonzero;"/>
        </g>
        <g transform="matrix(24,0,0,24,333.766,454.517)">
            <path d="M0.104,-0.024C0.104,-0.011 0.114,0 0.127,0L0.328,0C0.438,0 0.528,-0.089 0.528,-0.2C0.528,-0.288 0.47,-0.362 0.391,-0.389C0.431,-0.421 0.458,-0.47 0.458,-0.525C0.458,-0.622 0.38,-0.7 0.284,-0.7L0.128,-0.7C0.115,-0.7 0.104,-0.689 0.104,-0.676L0.104,-0.024ZM0.153,-0.049L0.153,-0.351L0.328,-0.351C0.411,-0.351 0.478,-0.283 0.479,-0.2C0.478,-0.116 0.411,-0.049 0.328,-0.049L0.153,-0.049ZM0.153,-0.401L0.153,-0.651L0.284,-0.651C0.353,-0.651 0.409,-0.595 0.409,-0.525C0.409,-0.457 0.353,-0.401 0.284,-0.401L0.153,-0.401Z" style="fill:white;fill-rule:nonzero;"/>
        </g>
        <g transform="matrix(24,0,0,24,348.022,454.517)">
            <path d="M0.07,-0.245C0.07,-0.112 0.174,0 0.302,0C0.431,0 0.534,-0.112 0.534,-0.245C0.534,-0.378 0.431,-0.49 0.302,-0.49C0.174,-0.49 0.07,-0.378 0.07,-0.245ZM0.118,-0.245C0.118,-0.354 0.202,-0.443 0.302,-0.443C0.402,-0.443 0.486,-0.354 0.486,-0.245C0.486,-0.136 0.402,-0.048 0.302,-0.048C0.202,-0.048 0.118,-0.136 0.118,-0.245Z" style="fill:white;fill-rule:nonzero;"/>
        </g>
        <g transform="matrix(24,0,0,24,363.022,454.517)">
            <path d="M0.07,-0.245C0.07,-0.112 0.174,0 0.302,0C0.431,0 0.534,-0.112 0.534,-0.245C0.534,-0.378 0.431,-0.49 0.302,-0.49C0.174,-0.49 0.07,-0.378 0.07,-0.245ZM0.118,-0.245C0.118,-0.354 0.202,-0.443 0.302,-0.443C0.402,-0.443 0.486,-0.354 0.486,-0.245C0.486,-0.136 0.402,-0.048 0.302,-0.048C0.202,-0.048 0.118,-0.136 0.118,-0.245Z" style="fill:white;fill-rule:nonzero;"/>
        </g>
        <g transform="matrix(24,0,0,24,377.566,454.517)">
            <path d="M0.24,-0.49L0.177,-0.49L0.177,-0.672C0.177,-0.684 0.164,-0.696 0.151,-0.696C0.139,-0.696 0.127,-0.684 0.127,-0.672L0.127,-0.49L0.066,-0.49C0.042,-0.49 0.042,-0.478 0.042,-0.466C0.042,-0.454 0.042,-0.442 0.066,-0.442L0.127,-0.442L0.127,-0.085C0.127,-0.036 0.164,0 0.213,0C0.225,0 0.238,-0.012 0.238,-0.024C0.238,-0.036 0.225,-0.049 0.213,-0.049C0.201,-0.049 0.177,-0.061 0.177,-0.085L0.177,-0.442L0.24,-0.442C0.252,-0.442 0.264,-0.454 0.264,-0.466C0.264,-0.478 0.252,-0.49 0.24,-0.49Z" style="fill:white;fill-rule:nonzero;"/>
        </g>
        <g transform="matrix(24,0,0,24,386.806,454.517)">
            <path d="M0.31,0C0.368,0 0.423,-0.02 0.464,-0.052C0.476,-0.061 0.478,-0.076 0.469,-0.087C0.461,-0.096 0.447,-0.099 0.436,-0.091C0.401,-0.064 0.357,-0.048 0.31,-0.048C0.196,-0.048 0.106,-0.136 0.106,-0.246C0.106,-0.354 0.196,-0.443 0.31,-0.443C0.357,-0.443 0.401,-0.427 0.436,-0.399C0.447,-0.391 0.461,-0.394 0.469,-0.403C0.478,-0.414 0.476,-0.429 0.466,-0.436C0.423,-0.47 0.368,-0.49 0.31,-0.49C0.17,-0.49 0.058,-0.382 0.058,-0.246C0.058,-0.108 0.17,0 0.31,0Z" style="fill:white;fill-rule:nonzero;"/>
        </g>
        <g transform="matrix(24,0,0,24,400.51,454.517)">
            <path d="M0.48,-0.49C0.467,-0.49 0.456,-0.48 0.456,-0.466L0.456,-0.394C0.414,-0.452 0.347,-0.49 0.272,-0.49C0.143,-0.49 0.04,-0.379 0.04,-0.245C0.04,-0.111 0.143,0 0.272,0C0.347,0 0.414,-0.039 0.456,-0.097L0.456,-0.024C0.456,-0.011 0.467,0 0.48,0C0.493,0 0.504,-0.011 0.504,-0.024L0.504,-0.466C0.504,-0.48 0.493,-0.49 0.48,-0.49ZM0.272,-0.048C0.172,-0.048 0.088,-0.135 0.088,-0.245C0.088,-0.355 0.172,-0.443 0.272,-0.443C0.373,-0.443 0.456,-0.355 0.456,-0.245C0.456,-0.135 0.373,-0.048 0.272,-0.048Z" style="fill:white;fill-rule:nonzero;"/>
        </g>
        <g transform="matrix(24,0,0,24,415.366,454.517)">
            <path d="M0.794,-0.023C0.794,-0.011 0.804,0 0.817,0C0.831,0 0.841,-0.011 0.841,-0.023L0.841,-0.29C0.841,-0.4 0.752,-0.489 0.642,-0.489C0.567,-0.489 0.501,-0.447 0.466,-0.385C0.432,-0.447 0.367,-0.489 0.291,-0.489C0.23,-0.489 0.176,-0.462 0.14,-0.419L0.14,-0.466C0.14,-0.479 0.13,-0.489 0.116,-0.489C0.104,-0.489 0.093,-0.479 0.093,-0.466L0.093,-0.018C0.096,-0.009 0.104,-0.001 0.113,0L0.123,0C0.125,0 0.128,-0.002 0.129,-0.003C0.136,-0.007 0.14,-0.014 0.14,-0.022L0.14,-0.29C0.14,-0.373 0.207,-0.442 0.291,-0.442C0.375,-0.442 0.442,-0.373 0.442,-0.29L0.442,-0.018L0.445,-0.011L0.45,-0.006C0.451,-0.005 0.452,-0.004 0.453,-0.004C0.455,-0.002 0.457,0 0.459,0L0.466,0C0.47,0 0.474,-0.001 0.478,-0.003C0.483,-0.006 0.488,-0.01 0.49,-0.016L0.491,-0.02L0.491,-0.29C0.491,-0.373 0.559,-0.442 0.642,-0.442C0.726,-0.442 0.792,-0.373 0.794,-0.29L0.794,-0.023Z" style="fill:white;fill-rule:nonzero;"/>
        </g>
        <g transform="matrix(24,0,0,24,438.19,454.517)">
            <path d="M0.093,0.181C0.093,0.194 0.104,0.205 0.117,0.205C0.131,0.205 0.142,0.194 0.142,0.181L0.142,-0.099C0.184,-0.041 0.252,-0.003 0.328,-0.003C0.46,-0.003 0.565,-0.114 0.565,-0.247C0.565,-0.381 0.46,-0.49 0.328,-0.49C0.252,-0.49 0.184,-0.452 0.142,-0.395L0.142,-0.466C0.142,-0.479 0.131,-0.49 0.117,-0.49C0.104,-0.49 0.093,-0.479 0.093,-0.466L0.093,0.181ZM0.142,-0.255C0.146,-0.359 0.229,-0.441 0.328,-0.441C0.432,-0.441 0.516,-0.355 0.516,-0.247C0.516,-0.139 0.432,-0.052 0.328,-0.051C0.227,-0.052 0.142,-0.139 0.142,-0.247L0.142,-0.255Z" style="fill:white;fill-rule:nonzero;"/>
        </g>
    </g>
</svg>
